<svg width="375" height="421" viewBox="0 0 375 421" fill="none" xmlns="http://www.w3.org/2000/svg">
<path d="M208.257 238.525L206.998 238.726C206.626 238.785 206.372 239.135 206.431 239.507L209.636 259.653C209.695 260.025 210.045 260.279 210.417 260.22L211.676 260.02C212.048 259.96 212.302 259.611 212.242 259.238L209.038 239.092C208.979 238.72 208.629 238.466 208.257 238.525Z" fill="#3A3768"/>
<path d="M205.742 149.435L141.478 159.656C135.142 160.664 130.824 166.619 131.832 172.958L156.385 327.324C157.393 333.662 163.346 337.984 169.682 336.976L233.946 326.755C240.281 325.747 244.6 319.792 243.592 313.453L219.039 159.087C218.031 152.748 212.078 148.427 205.742 149.435Z" fill="#5a5a5a"/>
<path d="M205.683 154.053L195.679 155.644L195.871 156.848C195.99 157.597 195.96 158.363 195.784 159.101C195.607 159.839 195.287 160.534 194.841 161.149C194.396 161.763 193.834 162.283 193.187 162.679C192.541 163.076 191.822 163.341 191.073 163.46L159.259 168.52C158.51 168.64 157.745 168.61 157.007 168.434C156.269 168.258 155.573 167.937 154.959 167.492C154.345 167.046 153.825 166.484 153.428 165.838C153.031 165.191 152.766 164.472 152.647 163.723L152.455 162.519L143.09 164.008C141.253 164.301 139.608 165.311 138.515 166.817C137.423 168.323 136.974 170.202 137.266 172.039L161.798 326.276C162.091 328.114 163.101 329.76 164.606 330.853C166.112 331.946 167.989 332.396 169.826 332.103L232.419 322.148C234.256 321.856 235.902 320.845 236.994 319.339C238.086 317.833 238.535 315.955 238.243 314.117L213.713 159.892C213.569 158.981 213.248 158.107 212.767 157.32C212.285 156.533 211.654 155.849 210.908 155.307C210.162 154.764 209.317 154.375 208.42 154.159C207.523 153.944 206.593 153.908 205.683 154.053Z" fill="#85c1ff"/>
<path opacity="0.1" d="M211.884 119.14C192.587 118.471 174.209 112.256 156.66 105.456C139.11 98.6555 121.728 91.1203 102.893 87.5177C90.7794 85.2004 76.9242 84.8731 67.1656 91.3523C57.7707 97.5994 54.7355 108.353 53.1046 118.343C51.8762 125.857 51.1547 133.767 54.5179 140.8C56.8554 145.685 60.9997 149.79 63.868 154.469C73.8472 170.747 66.7929 190.822 55.9818 206.716C50.9132 214.174 45.0246 221.293 41.1099 229.224C37.1951 237.154 35.3853 246.254 38.8111 254.352C42.2041 262.384 50.293 268.405 59.0558 272.644C76.8526 281.256 97.8159 283.719 118.272 285.115C163.541 288.205 209.048 286.867 254.436 285.528C271.234 285.031 288.104 284.529 304.628 281.938C313.805 280.498 323.277 278.216 329.941 272.701C338.397 265.701 340.493 253.849 334.825 245.071C325.32 230.348 299.046 226.692 292.394 210.893C288.739 202.194 292.493 192.508 297.809 184.441C309.21 167.139 328.319 151.958 329.324 132.182C330.016 118.599 320.829 104.995 306.625 98.5663C291.739 91.8312 271.091 92.6761 260.113 103.829C248.798 115.312 228.923 119.729 211.884 119.14Z" fill="#409eff" fill-opacity="0.54"/>
<path opacity="0.1" d="M188 358C237.706 358 278 352.404 278 345.5C278 338.596 237.706 333 188 333C138.294 333 98.0001 338.596 98.0001 345.5C98.0001 352.404 138.294 358 188 358Z" fill="#409eff" fill-opacity="0.54"/>
<g clip-path="url(#clip0_1_146)">
<path d="M203.97 265.058C204.016 265.335 203.95 265.62 203.786 265.848C203.623 266.077 203.375 266.231 203.098 266.277L183.51 269.533C183.233 269.579 182.949 269.513 182.72 269.35C182.492 269.186 182.337 268.939 182.291 268.662L180.238 256.307C178.599 256.312 177.019 255.7 175.812 254.592C174.604 253.485 173.858 251.963 173.722 250.331C173.586 248.698 174.07 247.074 175.078 245.782C176.086 244.49 177.543 243.625 179.16 243.36L210.162 238.207L205.188 208.281L159.197 215.926L171.278 288.613L217.27 280.968L212.301 251.074L201.953 252.794L203.97 265.058Z" fill="#d7ebff"/>
<path d="M221.661 238.497L179.516 245.503C178.376 245.692 177.359 246.326 176.687 247.266C176.016 248.205 175.745 249.373 175.934 250.513C176.123 251.652 176.758 252.67 177.697 253.341C178.637 254.013 179.805 254.284 180.944 254.095L223.099 247.088C222.54 245.725 222.135 244.305 221.89 242.852C221.656 241.413 221.579 239.953 221.661 238.497Z" fill="#5a5a5a"/>
<path d="M238.746 221.93C235.2 222.525 231.915 224.173 229.319 226.66C226.723 229.147 224.935 232.358 224.189 235.875C224.113 236.253 224.036 236.631 223.976 236.985C223.917 237.338 223.896 237.728 223.857 238.079C223.731 239.553 223.79 241.037 224.033 242.496C224.283 243.951 224.71 245.37 225.305 246.721C225.458 247.061 225.602 247.413 225.771 247.718C225.94 248.023 226.142 248.397 226.342 248.697C228.006 251.494 230.401 253.783 233.27 255.319C236.139 256.854 239.372 257.578 242.622 257.411C245.872 257.244 249.014 256.193 251.711 254.372C254.407 252.55 256.556 250.027 257.924 247.075C259.292 244.122 259.828 240.852 259.475 237.618C259.121 234.383 257.892 231.306 255.918 228.719C253.945 226.131 251.303 224.132 248.277 222.935C245.251 221.739 241.955 221.391 238.746 221.93V221.93ZM248.239 247.571C246.488 247.858 244.692 247.619 243.076 246.885C241.461 246.151 240.1 244.955 239.164 243.448C238.228 241.941 237.76 240.19 237.819 238.417C237.877 236.644 238.46 234.928 239.494 233.486C240.527 232.044 241.965 230.94 243.625 230.315C245.286 229.69 247.094 229.571 248.822 229.973C250.55 230.375 252.12 231.28 253.334 232.574C254.548 233.868 255.351 235.492 255.642 237.242C255.834 238.407 255.795 239.597 255.527 240.746C255.259 241.896 254.767 242.981 254.079 243.94C253.392 244.899 252.522 245.713 251.52 246.336C250.518 246.959 249.403 247.379 248.239 247.571V247.571Z" fill="#5a5a5a"/>
<path d="M199.789 253.154L182.365 256.05L184.224 267.234L201.648 264.338L199.789 253.154Z" fill="#5a5a5a"/>
</g>
<defs>
<clipPath id="clip0_1_146">
<rect width="105.96" height="132.45" fill="white" transform="translate(151.324 200.875) rotate(-9.43721)"/>
</clipPath>
</defs>
</svg>
